<?xml version="1.0" standalone="no"?>
<!DOCTYPE svg PUBLIC "-//W3C//DTD SVG 20010904//EN"
 "http://www.w3.org/TR/2001/REC-SVG-20010904/DTD/svg10.dtd">
<svg version="1.0" xmlns="http://www.w3.org/2000/svg"
 width="256.000000pt" height="256.000000pt" viewBox="0 0 256.000000 256.000000"
 preserveAspectRatio="xMidYMid meet">
<metadata>
Created by potrace 1.11, written by Peter Selinger 2001-2013
</metadata>
<g transform="translate(0.000000,256.000000) scale(0.100000,-0.100000)"
fill="#000000" stroke="none">
<path d="M1109 2549 c-558 -80 -997 -507 -1093 -1064 -20 -116 -14 -346 12
-465 110 -507 501 -895 1003 -995 94 -19 340 -28 409 -15 25 5 65 11 90 15
117 17 332 105 455 188 357 239 561 612 570 1042 5 229 -32 396 -133 600 -57
115 -163 261 -243 335 -214 199 -428 307 -699 355 -57 10 -310 13 -371 4z"/>
</g>
</svg>
